<mxfile host="65bd71144e" modified="2021-01-21T16:48:30.590Z" agent="5.0 (Macintosh; Intel Mac OS X 11_0_0) AppleWebKit/537.36 (KHTML, like Gecko) Code/1.52.1 Chrome/83.0.4103.122 Electron/9.3.5 Safari/537.36" version="13.10.0" etag="YxpquleqPaR6j97qy23-" type="embed">
    <diagram id="DgPw0l9J-vPMC0eLua03" name="第 1 页">
        <mxGraphModel dx="974" dy="615" grid="1" gridSize="10" guides="1" tooltips="1" connect="1" arrows="1" fold="1" page="1" pageScale="1" pageWidth="827" pageHeight="1169" background="#DAD2D8" math="0" shadow="0">
            <root>
                <mxCell id="0"/>
                <mxCell id="1" parent="0"/>
                <mxCell id="2" value="roller&lt;br&gt;dashboard" style="shape=umlLifeline;participant=umlEntity;perimeter=lifelinePerimeter;whiteSpace=wrap;html=1;container=1;collapsible=0;recursiveResize=0;verticalAlign=top;spacingTop=36;outlineConnect=0;rounded=0;sketch=0;strokeColor=#0F8B8D;fillColor=#FAE5C7;fontColor=#143642;" vertex="1" parent="1">
                    <mxGeometry x="220" y="50" width="40" height="780" as="geometry"/>
                </mxCell>
                <mxCell id="7" value="" style="html=1;points=[];perimeter=orthogonalPerimeter;rounded=0;sketch=0;strokeColor=#0F8B8D;fillColor=#FAE5C7;fontColor=#143642;" vertex="1" parent="2">
                    <mxGeometry x="15" y="142" width="10" height="138" as="geometry"/>
                </mxCell>
                <mxCell id="3" value="db" style="shape=umlLifeline;participant=umlEntity;perimeter=lifelinePerimeter;whiteSpace=wrap;html=1;container=1;collapsible=0;recursiveResize=0;verticalAlign=top;spacingTop=36;outlineConnect=0;rounded=0;sketch=0;strokeColor=#0F8B8D;fillColor=#FAE5C7;fontColor=#143642;" vertex="1" parent="1">
                    <mxGeometry x="476" y="50" width="40" height="780" as="geometry"/>
                </mxCell>
                <mxCell id="15" value="" style="html=1;points=[];perimeter=orthogonalPerimeter;rounded=0;sketch=0;strokeColor=#0F8B8D;fillColor=#FAE5C7;fontColor=#143642;" vertex="1" parent="3">
                    <mxGeometry x="15" y="340" width="10" height="50" as="geometry"/>
                </mxCell>
                <mxCell id="24" value="" style="html=1;points=[];perimeter=orthogonalPerimeter;rounded=0;sketch=0;strokeColor=#0F8B8D;fillColor=#FAE5C7;fontColor=#143642;" vertex="1" parent="3">
                    <mxGeometry x="20" y="500" width="10" height="50" as="geometry"/>
                </mxCell>
                <mxCell id="4" value="coaster" style="shape=umlLifeline;participant=umlEntity;perimeter=lifelinePerimeter;whiteSpace=wrap;html=1;container=1;collapsible=0;recursiveResize=0;verticalAlign=top;spacingTop=36;outlineConnect=0;rounded=0;sketch=0;strokeColor=#0F8B8D;fillColor=#FAE5C7;fontColor=#143642;" vertex="1" parent="1">
                    <mxGeometry x="356" y="50" width="40" height="780" as="geometry"/>
                </mxCell>
                <mxCell id="12" value="" style="html=1;points=[];perimeter=orthogonalPerimeter;rounded=0;sketch=0;strokeColor=#0F8B8D;fillColor=#FAE5C7;fontColor=#143642;" vertex="1" parent="4">
                    <mxGeometry x="15" y="230" width="10" height="140" as="geometry"/>
                </mxCell>
                <mxCell id="20" value="" style="html=1;points=[];perimeter=orthogonalPerimeter;rounded=0;sketch=0;strokeColor=#0F8B8D;fillColor=#FAE5C7;fontColor=#143642;" vertex="1" parent="4">
                    <mxGeometry x="15" y="400" width="10" height="120" as="geometry"/>
                </mxCell>
                <mxCell id="27" value="" style="html=1;points=[];perimeter=orthogonalPerimeter;rounded=0;sketch=0;strokeColor=#0F8B8D;fillColor=#FAE5C7;fontColor=#143642;" vertex="1" parent="4">
                    <mxGeometry x="15" y="600" width="10" height="60" as="geometry"/>
                </mxCell>
                <mxCell id="28" value="轮询变更" style="edgeStyle=orthogonalEdgeStyle;html=1;align=left;spacingLeft=2;endArrow=block;rounded=0;entryX=1;entryY=0;strokeColor=#A8201A;fillColor=#FAE5C7;fontColor=#143642;labelBackgroundColor=#DAD2D8;" edge="1" target="27" parent="4">
                    <mxGeometry relative="1" as="geometry">
                        <mxPoint x="20" y="570" as="sourcePoint"/>
                        <Array as="points">
                            <mxPoint x="45" y="570"/>
                        </Array>
                    </mxGeometry>
                </mxCell>
                <mxCell id="6" value="Actor" style="shape=umlLifeline;participant=umlActor;perimeter=lifelinePerimeter;whiteSpace=wrap;html=1;container=1;collapsible=0;recursiveResize=0;verticalAlign=top;spacingTop=36;outlineConnect=0;rounded=0;sketch=0;strokeColor=#0F8B8D;fillColor=#FAE5C7;fontColor=#143642;" vertex="1" parent="1">
                    <mxGeometry x="110" y="50" width="20" height="780" as="geometry"/>
                </mxCell>
                <mxCell id="32" value="" style="html=1;points=[];perimeter=orthogonalPerimeter;rounded=0;sketch=0;strokeColor=#0F8B8D;fillColor=#FAE5C7;fontColor=#143642;" vertex="1" parent="6">
                    <mxGeometry x="10" y="110" width="10" height="40" as="geometry"/>
                </mxCell>
                <mxCell id="33" value="制作license/添加ark values" style="edgeStyle=orthogonalEdgeStyle;html=1;align=left;spacingLeft=2;endArrow=block;rounded=0;entryX=1;entryY=0;strokeColor=#A8201A;fillColor=#FAE5C7;fontColor=#143642;labelBackgroundColor=#DAD2D8;" edge="1" target="32" parent="6">
                    <mxGeometry relative="1" as="geometry">
                        <mxPoint x="9.5" y="90" as="sourcePoint"/>
                        <Array as="points">
                            <mxPoint x="40" y="90"/>
                            <mxPoint x="40" y="110"/>
                        </Array>
                    </mxGeometry>
                </mxCell>
                <mxCell id="8" value="上传license" style="html=1;verticalAlign=bottom;startArrow=oval;endArrow=block;startSize=8;strokeColor=#A8201A;fillColor=#FAE5C7;fontColor=#143642;labelBackgroundColor=#DAD2D8;" edge="1" target="7" parent="1" source="6">
                    <mxGeometry relative="1" as="geometry">
                        <mxPoint x="119.5" y="232" as="sourcePoint"/>
                        <Array as="points">
                            <mxPoint x="160" y="232"/>
                        </Array>
                    </mxGeometry>
                </mxCell>
                <mxCell id="10" value="解析license" style="edgeStyle=orthogonalEdgeStyle;html=1;align=left;spacingLeft=2;endArrow=block;rounded=0;strokeColor=#A8201A;fillColor=#FAE5C7;fontColor=#143642;labelBackgroundColor=#DAD2D8;" edge="1" parent="1">
                    <mxGeometry relative="1" as="geometry">
                        <mxPoint x="245" y="256" as="sourcePoint"/>
                        <Array as="points">
                            <mxPoint x="280" y="256"/>
                            <mxPoint x="280" y="286"/>
                        </Array>
                        <mxPoint x="245" y="286" as="targetPoint"/>
                    </mxGeometry>
                </mxCell>
                <mxCell id="11" value="上传配置upload_configs" style="html=1;verticalAlign=bottom;startArrow=oval;endArrow=block;startSize=8;strokeColor=#A8201A;fillColor=#FAE5C7;fontColor=#143642;entryX=0.1;entryY=0.293;entryDx=0;entryDy=0;entryPerimeter=0;labelBackgroundColor=#DAD2D8;" edge="1" parent="1" target="12">
                    <mxGeometry relative="1" as="geometry">
                        <mxPoint x="248" y="320" as="sourcePoint"/>
                        <mxPoint x="360" y="320" as="targetPoint"/>
                        <Array as="points"/>
                    </mxGeometry>
                </mxCell>
                <mxCell id="14" value="解析license" style="edgeStyle=orthogonalEdgeStyle;html=1;align=left;spacingLeft=2;endArrow=block;rounded=0;strokeColor=#A8201A;fillColor=#FAE5C7;fontColor=#143642;labelBackgroundColor=#DAD2D8;" edge="1" parent="1">
                    <mxGeometry relative="1" as="geometry">
                        <mxPoint x="380" y="340" as="sourcePoint"/>
                        <Array as="points">
                            <mxPoint x="410" y="340"/>
                            <mxPoint x="410" y="370"/>
                        </Array>
                        <mxPoint x="380" y="370" as="targetPoint"/>
                    </mxGeometry>
                </mxCell>
                <mxCell id="16" value="保存license" style="html=1;verticalAlign=bottom;startArrow=oval;endArrow=block;startSize=8;strokeColor=#A8201A;fillColor=#FAE5C7;fontColor=#143642;exitX=1.2;exitY=0.8;exitDx=0;exitDy=0;exitPerimeter=0;labelBackgroundColor=#DAD2D8;" edge="1" target="15" parent="1" source="12">
                    <mxGeometry relative="1" as="geometry">
                        <mxPoint x="390" y="410" as="sourcePoint"/>
                    </mxGeometry>
                </mxCell>
                <mxCell id="21" value="配置license_config" style="html=1;verticalAlign=bottom;startArrow=oval;endArrow=block;startSize=8;strokeColor=#A8201A;fillColor=#FAE5C7;fontColor=#143642;labelBackgroundColor=#DAD2D8;" edge="1" target="20" parent="1">
                    <mxGeometry relative="1" as="geometry">
                        <mxPoint x="239.5" y="470" as="sourcePoint"/>
                    </mxGeometry>
                </mxCell>
                <mxCell id="23" value="校验license" style="edgeStyle=orthogonalEdgeStyle;html=1;align=left;spacingLeft=2;endArrow=block;rounded=0;strokeColor=#A8201A;fillColor=#FAE5C7;fontColor=#143642;labelBackgroundColor=#DAD2D8;" edge="1" parent="1">
                    <mxGeometry relative="1" as="geometry">
                        <mxPoint x="380" y="490" as="sourcePoint"/>
                        <Array as="points">
                            <mxPoint x="410" y="490"/>
                            <mxPoint x="410" y="520"/>
                        </Array>
                        <mxPoint x="380" y="520" as="targetPoint"/>
                    </mxGeometry>
                </mxCell>
                <mxCell id="25" value="创建变更add_pending_changes" style="html=1;verticalAlign=bottom;startArrow=oval;endArrow=block;startSize=8;strokeColor=#A8201A;fillColor=#FAE5C7;fontColor=#143642;labelBackgroundColor=#DAD2D8;exitX=1.3;exitY=0.88;exitDx=0;exitDy=0;exitPerimeter=0;" edge="1" target="3" parent="1" source="20">
                    <mxGeometry relative="1" as="geometry">
                        <mxPoint x="441" y="585" as="sourcePoint"/>
                        <Array as="points"/>
                    </mxGeometry>
                </mxCell>
                <mxCell id="26" value="horizon" style="shape=umlLifeline;participant=umlEntity;perimeter=lifelinePerimeter;whiteSpace=wrap;html=1;container=1;collapsible=0;recursiveResize=0;verticalAlign=top;spacingTop=36;outlineConnect=0;rounded=0;sketch=0;strokeColor=#0F8B8D;fillColor=#FAE5C7;fontColor=#143642;" vertex="1" parent="1">
                    <mxGeometry x="610" y="50" width="40" height="780" as="geometry"/>
                </mxCell>
                <mxCell id="29" value="" style="html=1;points=[];perimeter=orthogonalPerimeter;rounded=0;sketch=0;strokeColor=#0F8B8D;fillColor=#FAE5C7;fontColor=#143642;" vertex="1" parent="26">
                    <mxGeometry x="15" y="640" width="10" height="80" as="geometry"/>
                </mxCell>
                <mxCell id="31" value="刷新/add_v5_menu&lt;br&gt;写入config cr" style="edgeStyle=orthogonalEdgeStyle;html=1;align=left;spacingLeft=2;endArrow=block;rounded=0;strokeColor=#A8201A;fillColor=#FAE5C7;fontColor=#143642;entryX=1;entryY=0.45;entryDx=0;entryDy=0;entryPerimeter=0;exitX=1.1;exitY=0.838;exitDx=0;exitDy=0;exitPerimeter=0;labelBackgroundColor=#DAD2D8;" edge="1" parent="26" source="29" target="29">
                    <mxGeometry relative="1" as="geometry">
                        <mxPoint x="-220" y="430" as="sourcePoint"/>
                        <Array as="points">
                            <mxPoint x="60" y="707"/>
                            <mxPoint x="60" y="676"/>
                        </Array>
                        <mxPoint x="-220" y="460" as="targetPoint"/>
                    </mxGeometry>
                </mxCell>
                <mxCell id="30" value="合并ark values/调用升级" style="html=1;verticalAlign=bottom;startArrow=oval;endArrow=block;startSize=8;strokeColor=#A8201A;fillColor=#FAE5C7;fontColor=#143642;exitX=1.2;exitY=0.683;exitDx=0;exitDy=0;exitPerimeter=0;labelBackgroundColor=#DAD2D8;" edge="1" target="29" parent="1" source="27">
                    <mxGeometry relative="1" as="geometry">
                        <mxPoint x="565" y="710" as="sourcePoint"/>
                    </mxGeometry>
                </mxCell>
            </root>
        </mxGraphModel>
    </diagram>
</mxfile>